<svg xmlns="http://www.w3.org/2000/svg" width="58" height="59" fill="none" viewBox="0 0 58 59"><g id="Group 9319"><circle id="Ellipse 191" cx="29" cy="29.5" r="29" fill="#0A66C2"/><path id="Vector" fill="#fff" d="M21.086 18.5445C21.0856 19.3516 20.7647 20.1254 20.1937 20.6958C19.6227 21.2662 18.8486 21.5864 18.0415 21.586C17.2344 21.5856 16.4606 21.2647 15.8902 20.6937C15.3198 20.1227 14.9996 19.3486 15 18.5415C15.0004 17.7344 15.3214 16.9606 15.8924 16.3902C16.4633 15.8198 17.2375 15.4996 18.0445 15.5C18.8516 15.5004 19.6254 15.8214 20.1958 16.3924C20.7662 16.9633 21.0864 17.7375 21.086 18.5445ZM21.1773 23.8394H15.0913V42.8887H21.1773V23.8394ZM30.7933 23.8394H24.7377V42.8887H30.7324V32.8924C30.7324 27.3237 37.99 26.8063 37.99 32.8924V42.8887H44V30.8231C44 21.4354 33.2581 21.7854 30.7324 26.3955L30.7933 23.8394Z"/></g></svg>