<svg xmlns="http://www.w3.org/2000/svg" width="58" height="59" fill="none" viewBox="0 0 58 59"><g id="logos:pinterest" clip-path="url(#clip0_190_2594)"><path id="Vector" fill="#CB1F27" d="M0 29.727C0 41.6021 7.1408 51.8037 17.359 56.289C17.2774 54.264 17.3445 51.8329 17.8638 49.6296C18.4213 47.2754 21.5953 33.8273 21.5953 33.8273C21.5953 33.8273 20.6688 31.9756 20.6688 29.239C20.6688 24.9413 23.1597 21.7316 26.2618 21.7316C28.8996 21.7316 30.174 23.7129 30.174 26.0855C30.174 28.7372 28.4828 32.7036 27.613 36.3773C26.8864 39.4536 29.1554 41.9627 32.1902 41.9627C37.6848 41.9627 41.3855 34.9056 41.3855 26.544C41.3855 20.1881 37.1046 15.4307 29.3183 15.4307C20.5214 15.4307 15.041 21.991 15.041 29.319C15.041 31.8456 15.786 33.6273 16.9528 35.0071C17.4893 35.6408 17.5638 35.8956 17.3696 36.6234C17.2305 37.1569 16.9111 38.4415 16.7788 38.9506C16.5857 39.6851 15.9906 39.9477 15.3267 39.6765C11.2749 38.0224 9.38784 33.5851 9.38784 28.5971C9.38784 20.3591 16.3356 10.481 30.1142 10.481C41.1863 10.481 48.4737 18.4931 48.4737 27.0937C48.4737 38.4701 42.149 46.9691 32.826 46.9691C29.6951 46.9691 26.75 45.2767 25.7411 43.3543C25.7411 43.3543 24.0575 50.0361 23.7009 51.3264C23.086 53.5623 21.8825 55.7971 20.7821 57.5389C23.4505 58.3279 26.2186 58.7284 29.0011 58.7281C45.0155 58.7281 58.0002 45.7441 58.0002 29.727C58.0002 13.7106 45.0155 0.726562 29.0011 0.726562C12.9852 0.726562 0 13.7106 0 29.727Z"/></g><defs><clipPath id="clip0_190_2594"><rect width="58" height="58" fill="#fff" transform="translate(0 0.726562)"/></clipPath></defs></svg>